<svg xmlns="http://www.w3.org/2000/svg" enable-background="new 0 0 60 60" viewBox="0 0 60 60" id="college">
  <path d="M6.9990234,36.1972656h2.2661133v15.4765625H7.0009766c-0.5522461,0-1,0.4472656-1,1s0.4477539,1,1,1h3.2641602h9.8510742
	h4.6166992h10.5356445h4.6166992h9.8510742h3.2646484c0.5522461,0,1-0.4472656,1-1s-0.4477539-1-1-1h-2.2646484V36.1972656
	h2.2626953c0.5522461,0,1-0.4472656,1-1v-4.6103516c0-0.5527344-0.4477539-1-1-1H40.8852539v-2.6152344l0.5791016,0.5791016
	c0.1953125,0.1953125,0.4511719,0.2929688,0.7070313,0.2929688s0.512207-0.0976563,0.7070313-0.2929688
	c0.390625-0.390625,0.390625-1.0234375,0-1.4140625L31.0009766,14.2597656v-1.3662109h7.2895508c0.5522461,0,1-0.4472656,1-1
	V7.3261719c0-0.5527344-0.4477539-1-1-1h-8.2895508c-0.5522461,0-1,0.4472656-1,1v4.5673828v2.3662109L17.1230469,26.1367188
	c-0.390625,0.390625-0.390625,1.0234375,0,1.4140625c0.3896484,0.390625,1.0234375,0.390625,1.4140625,0l0.5791016-0.5790405
	v2.6151733H6.9990234c-0.5522461,0-1,0.4472656-1,1v4.6103516C5.9990234,35.75,6.4467773,36.1972656,6.9990234,36.1972656z
	 M40.8852539,31.5869141h11.1137695v2.6103516h-2.2626953h-8.8510742V31.5869141z M40.8852539,36.1972656h7.8510742v15.4765625
	h-7.8510742V36.1972656z M31.0009766,8.3261719h6.2895508v2.5673828h-6.2895508V8.3261719z M34.2685547,51.6738281h-8.5356445
	v-11.34375h8.5356445V51.6738281z M21.1162109,35.211792c0.000061-0.005127,0.0029297-0.0093994,0.0029297-0.0145264
	s-0.0028687-0.0093994-0.0029297-0.0145264v-4.5812988c0.000061-0.005127,0.0029297-0.0093994,0.0029297-0.0145264
	s-0.0028687-0.0093994-0.0029297-0.0145264v-5.5997314l8.8847656-8.8847656l8.8842773,8.8847656v10.2246094v16.4765625h-2.6166992
	v-12.34375c0-0.5527344-0.4477539-1-1-1H24.7329102c-0.5522461,0-1,0.4472656-1,1v12.34375h-2.6166992V35.211792z
	 M19.1162109,51.6738281h-7.8510742V36.1972656h7.8510742V51.6738281z M7.9990234,31.5869141h11.1171875v2.6103516h-8.8510742
	H7.9990234V31.5869141z"></path>
  <path d="M30.0009766,31.4150391c2.5205078,0,4.5708008-2.0507813,4.5708008-4.5712891s-2.050293-4.5712891-4.5708008-4.5712891
	s-4.5712891,2.0507813-4.5712891,4.5712891S27.4804688,31.4150391,30.0009766,31.4150391z M30.0009766,24.2724609
	c1.4174805,0,2.5708008,1.1533203,2.5708008,2.5712891s-1.1533203,2.5712891-2.5708008,2.5712891
	c-1.4179688,0-2.5712891-1.1533203-2.5712891-2.5712891S28.5830078,24.2724609,30.0009766,24.2724609z"></path>
</svg>
