<svg id="SvgjsSvg1001" width="288" height="288" xmlns="http://www.w3.org/2000/svg" version="1.1" xmlns:xlink="http://www.w3.org/1999/xlink" xmlns:svgjs="http://svgjs.com/svgjs"><defs id="SvgjsDefs1002"></defs><g id="SvgjsG1008"><svg xmlns="http://www.w3.org/2000/svg" viewBox="-53.24 -51.863 1024 1024" width="288" height="288"><path d="M834.846 476.964v207.772c0 14.076.438 28.216-1.396 42.205l1-7.443a160.687 160.687 0 0 1-5.183 23.759c-1.146 3.83-2.492 7.597-3.936 11.323-2.592 6.69 2.194-4.968.271-.578-.884 2.015-1.837 3.998-2.807 5.973-3.473 7.068-7.581 13.813-12.098 20.259-1 1.428-2.043 2.825-3.091 4.217 5.958-7.914.931-1.284-.518.448-2.789 3.337-5.761 6.518-8.822 9.604-2.756 2.779-5.651 5.417-8.61 7.977a149.13 149.13 0 0 1-4.02 3.332c-2.214 1.75-1.354 1.094 2.577-1.969-1.037.795-2.095 1.563-3.152 2.331-6.369 4.627-13.146 8.676-20.146 12.267a152.508 152.508 0 0 1-7.149 3.398c-4.799 2.153 6.688-2.748 1.811-.76-3.698 1.507-7.473 2.819-11.277 4.03-8.16 2.597-16.562 4.389-25.037 5.577l7.443-1c-12.931 1.695-25.906 1.396-38.908 1.396H232.215c-10.794 0-21.479.014-32.23-1.396l7.443 1a160.742 160.742 0 0 1-23.759-5.183c-3.83-1.146-7.597-2.491-11.323-3.936-6.691-2.592 4.968 2.194.578.271-2.015-.884-3.998-1.837-5.973-2.807-7.069-3.473-13.813-7.58-20.259-12.098-1.427-1-2.825-2.043-4.217-3.091 7.914 5.958 1.284.931-.448-.518-3.337-2.789-6.517-5.761-9.604-8.822-2.779-2.756-5.417-5.651-7.977-8.61a151.037 151.037 0 0 1-3.332-4.02c-1.75-2.214-1.094-1.354 1.969 2.577-.795-1.037-1.563-2.095-2.332-3.152-4.627-6.369-8.675-13.146-12.266-20.146a148.127 148.127 0 0 1-3.397-7.149c-2.154-4.799 2.748 6.688.76 1.811-1.508-3.698-2.82-7.473-4.031-11.277-2.597-8.16-4.389-16.562-5.577-25.037l1 7.443c-1.695-12.931-1.396-25.906-1.396-38.908V228.45c0-10.793-.014-21.479 1.396-32.23l-1 7.444a160.715 160.715 0 0 1 5.183-23.759c1.145-3.83 2.491-7.597 3.935-11.323 2.592-6.691-2.194 4.968-.27.579.883-2.015 1.836-3.999 2.806-5.973 3.472-7.069 7.581-13.813 12.097-20.26 1-1.427 2.043-2.824 3.091-4.216-5.958 7.914-.931 1.284.517-.449 2.79-3.336 5.761-6.517 8.822-9.604 2.756-2.779 5.651-5.417 8.61-7.977a154.31 154.31 0 0 1 4.02-3.332c2.214-1.75 1.355-1.094-2.577 1.969 1.038-.795 2.095-1.563 3.152-2.332 6.369-4.627 13.146-8.675 20.146-12.266a153.612 153.612 0 0 1 7.15-3.397c4.799-2.154-6.688 2.748-1.811.76 3.698-1.508 7.474-2.82 11.278-4.031 8.16-2.597 16.562-4.389 25.037-5.577l-7.443 1c18.358-2.407 37.343-1.396 55.816-1.396H449.96c15.264 0 28-12.737 28-28s-12.736-28-28-28H231.02c-6.227 0-12.459-.082-18.68.226-26.698 1.323-52.258 8.483-76.003 20.662-44.25 22.695-77.467 65.431-90.382 113.208-5.258 19.451-6.111 39.323-6.111 59.29V695.689c0 21.992 1.655 43.886 8.378 65.009 15.036 47.238 50.021 88.188 95.231 108.955 26.658 12.245 54.558 17.431 83.777 17.431h464.976c15.502 0 30.464-.225 45.945-2.396 50.041-7.018 94.043-37.133 122.395-78.337 21.232-30.856 30.301-68.001 30.301-105.078V476.966c0-15.264-12.736-28-28-28s-28.001 12.735-28.001 27.998zM640.846 92.08h222c15.264 0 28-12.737 28-28s-12.736-28-28-28h-222c-15.264 0-28 12.737-28 28s12.737 28 28 28z" fill="#ffffff" class="svgShape color000000-0 selectable"></path><path d="M890.846 286.08v-222c0-15.263-12.736-28-28-28s-28 12.737-28 28v222c0 15.263 12.736 28 28 28s28-12.737 28-28z" fill="#ffffff" class="svgShape color000000-1 selectable"></path><path d="m485.953 480.57 56.513-56.512 127.005-127.005 133.705-133.704a2766499.868 2766499.868 0 0 1 79.469-79.47c10.788-10.787 10.788-28.811 0-39.598-10.787-10.788-28.811-10.788-39.598 0l-56.512 56.512-127.006 127.005-133.705 133.704a2766499.868 2766499.868 0 0 1-79.469 79.47c-10.788 10.787-10.788 28.811 0 39.598 10.787 10.788 28.811 10.788 39.598 0z" fill="#ffffff" class="svgShape color000000-2 selectable"></path></svg></g></svg>