<svg id="SvgjsSvg1001" width="288" height="288" xmlns="http://www.w3.org/2000/svg" version="1.1" xmlns:xlink="http://www.w3.org/1999/xlink" xmlns:svgjs="http://svgjs.com/svgjs"><defs id="SvgjsDefs1002"></defs><g id="SvgjsG1008"><svg xmlns="http://www.w3.org/2000/svg" viewBox="0 0 16 16" width="288" height="288"><path d="M4.484 4a.5.5 0 0 0 .051 1h6.93a.5.5 0 1 0 0-1h-6.93a.5.5 0 0 0-.05 0zm0 3a.5.5 0 0 0 .051 1h6.93a.5.5 0 1 0 0-1h-6.93a.5.5 0 0 0-.05 0zm0 3a.5.5 0 0 0 .051 1h6.93a.5.5 0 1 0 0-1h-6.93a.5.5 0 0 0-.05 0z" style="line-height:normal;text-indent:0;text-align:start;text-decoration-line:none;text-decoration-style:solid;text-decoration-color:#000;text-transform:none;block-progression:tb;white-space:normal;isolation:auto;mix-blend-mode:normal;solid-color:#000;solid-opacity:1" fill-rule="evenodd" color="#000" enable-background="accumulate" font-family="sans-serif" font-weight="400" overflow="visible" fill="#000000" class="svgShape color000000-0 selectable"></path></svg></g></svg>