<svg id="SvgjsSvg1012" width="288" height="288" xmlns="http://www.w3.org/2000/svg" version="1.1" xmlns:xlink="http://www.w3.org/1999/xlink" xmlns:svgjs="http://svgjs.com/svgjs"><defs id="SvgjsDefs1013"></defs><g id="SvgjsG1014"><svg xmlns="http://www.w3.org/2000/svg" viewBox="0 0 88 88" width="288" height="288"><path d="M85.47265625 22.11865234 44.47265625.11865234c-.29492188-.15820312-.65039062-.15820312-.9453125 0L2.52734375 22.11865234c-.32470703.17431641-.52734375.51318359-.52734375.88134766 0 .36865234.20263672.70703125.52734375.88134766l20.47265625 10.98504639v10.13360596c0 4.12255859 10.88574219 6 21 6s21-1.87744141 21-6v-10.13305664l5-2.6829834v6.95806885c-1.72027588.44726562-3 1.99969482-3 3.85797119 0 1.25219727.59020996 2.35803223 1.49389648 3.09204102l-1.20092773 1.20092773c-.1875.1875-.29296875.44189453-.29296875.70703125v8c0 .55224609.44775391 1 1 1h6c.55224609 0 1-.44775391 1-1v-8c0-.26513672-.10546875-.51953125-.29296875-.70703125l-1.20092773-1.20092773c.90368652-.73400879 1.49389648-1.83984375 1.49389648-3.09204102 0-1.85827637-1.27972412-3.41070557-3-3.85797119v-8.03125l13.47265625-7.22943115c.32470703-.17431641.52734375-.51318359.52734375-.88134766s-.20263672-.70703125-.52734375-.88134766ZM73 48.4140625v6.5859375h-4v-6.5859375l1.46789551-1.46789551c.17584229.02374268.34991455.05383301.53210449.05383301s.35626221-.03009033.53210449-.05383301l1.46789551 1.46789551ZM73 43c0 1.10302734-.89697266 2-2 2s-2-.89697266-2-2 .89697266-2 2-2 2 .89697266 2 2ZM63 42.23925781c-3.60223389-2.20837402-11.51019287-3.23925781-19-3.23925781s-15.39776611 1.03088379-19 3.23925781v-19.23925781c0-1.35742188 6.70654297-4 19-4s19 2.64257812 19 4v19.23925781ZM44 49c-12.29345703 0-19-2.64257812-19-4s6.70654297-4 19-4 19 2.64257812 19 4-6.70654297 4-19 4ZM65 32.59698486v-9.59698486c0-4.12255859-10.88574219-6-21-6s-21 1.87744141-21 6v9.59649658L5.11523438 23 44 2.13476562l26 13.95123291v13.82806396l-5 2.68292236ZM72 28.84088135v-11.6817627l10.88525391 5.84088135-10.88525391 5.84088135ZM67 58c-.03668213 0-.07196045.00854492-.10845947.00970459-.00720215.00079346-.01373291-.00238037-.02093506-.00140381l-.08129883.01062012c-.17852783.01092529-.35522461.03131104-.52905273.06896973l-13.47894287 1.75793457c-.09448242-.11352539-.18847656-.22753906-.29400635-.33312988-1.17236328-1.17285156-2.8046875-1.66845703-4.39990234-1.38085938-.93115234-1.33251953-2.43408203-2.13183594-4.08740234-2.13183594s-3.15576172.79931641-4.08740234 2.13183594c-1.59814453-.28759766-3.22753906.20800781-4.39941406 1.38085938-.10559082.10559082-.199646.21966553-.29418945.33319092l-14.08959961-1.83758545c-.02246094-.00299072-.04315186.00598145-.06549072.00457764-.02227783-.00146484-.04125977-.01287842-.06390381-.01287842-3.36425781 0-6 4.83154297-6 11s2.63574219 11 6 11c.00396729 0 .00726318-.00219727.01123047-.0022583.03924561-.00042725.07849121-.00219727.11816406-.00750732l15.87060547-2.06976318v9.07952881c0 .32128906.15429688.62304688.41552734.81103516.26025391.18798828.59570312.23730469.90087891.13769531l5.68359375-1.89453125 5.68359375 1.89453125c.10351562.03417969.20996094.05126953.31640625.05126953.20703125 0 .41210938-.06445312.58447266-.18896484.26123047-.18798828.41552734-.48974609.41552734-.81103516v-9.07958984l15.24993896 1.9888916c.18890381.04150391.38085938.06524658.57537842.07501221l.04528809.00592041c.02355957.00311279.04675293.00311279.07012939.00445557.0199585.00036621.03924561.00531006.05926514.00531006 3.36425781 0 6-4.83154297 6-11s-2.63574219-11-6-11ZM63.14465332 60.51141357c-1.31768799 2.00213623-2.14465332 5.03503418-2.14465332 8.48858643 0 3.45269775.82659912 6.48486328 2.14367676 8.48699951l-10.34783936-1.34954834c.93066406-1.12744141 1.32019043-2.61779785 1.06500244-4.05493164 1.33691406-.92285156 2.13916016-2.42333984 2.13916016-4.08251953 0-1.65576172-.80273438-3.15917969-2.14013672-4.08886719.12976074-.72949219.08673096-1.47192383-.10186768-2.17553711l9.38665771-1.22418213ZM40.05615234 60.23242188c.48144531.171875 1.01367188-.04736328 1.23486328-.50878906.51220703-1.06298828 1.54980469-1.72363281 2.70898438-1.72363281s2.19677734.66064453 2.70898438 1.72363281c.22070312.46044922.75390625.67871094 1.23486328.50878906 1.10888672-.39306641 2.30761719-.12646484 3.12939453.69433594.82226562.82275391 1.08544922 2.01953125.68652344 3.12353516-.17480469.48339844.04541016 1.02050781.50927734 1.2421875 1.06787109.51025391 1.73095703 1.54785156 1.73095703 2.70751953 0 1.16162109-.66113281 2.19433594-1.72558594 2.6953125-.46728516.21972656-.69042969.75927734-.51464844 1.24462891.39453125 1.09130859.125 2.32080078-.68652344 3.1328125-.82226562.82226562-2.01855469 1.08544922-3.12353516.68701172-.48144531-.17480469-1.02050781.04541016-1.2421875.50927734-.51025391 1.06787109-1.54785156 1.73095703-2.70751953 1.73095703s-2.19726562-.66308594-2.70751953-1.73095703c-.17041016-.35644531-.52685547-.56884766-.90234375-.56884766-.11328125 0-.22802734.01904297-.33984375.05957031-1.10546875.39892578-2.30078125.13574219-3.12304688-.68701172-.81201172-.81201172-1.08154297-2.04150391-.68701172-3.1328125.17578125-.48535156-.04736328-1.02490234-.51464844-1.24462891-1.06445312-.50097656-1.72558594-1.53369141-1.72558594-2.6953125 0-1.15966797.66308594-2.19726562 1.73095703-2.70751953.46386719-.22167969.68408203-.75878906.50927734-1.2421875-.39892578-1.10400391-.13574219-2.30078125.68701172-3.12353516.82080078-.82080078 2.02050781-1.08740234 3.12890625-.69433594ZM17 69c0-5.27191162 2.08251953-8.9519043 3.96575928-8.99591064l13.27630615 1.73156738c-.18865967.70361328-.23168945 1.44604492-.10192871 2.17547607-1.33740234.9296875-2.14013672 2.43310547-2.14013672 4.08886719 0 1.65917969.80224609 3.15966797 2.13916016 4.08251953-.25561523 1.43713379.13470459 2.92749023 1.06549072 4.05493164l-14.24475098 1.85772705c-1.88171387-.05145264-3.9598999-3.72869873-3.9598999-8.99517822ZM44.31640625 84.05126953c-.20605469-.06835938-.42675781-.06835938-.6328125 0l-4.68359375 1.56152344v-7.68463135c.30371094.00213623.60839844-.0144043.91113281-.06829834.9296875 1.33740234 2.43310547 2.14013672 4.08886719 2.14013672s3.15917969-.80273438 4.08886719-2.14013672c.3026123.0534668.60736084.06976318.91113281.06744385v7.68548584l-4.68359375-1.56152344ZM69 76.67700195v-2.67700195c0-2.20556641-1.79443359-4-4-4-.55224609 0-1 .44775391-1 1s.44775391 1 1 1c1.10302734 0 2 .89697266 2 2v3.98999023l-.41870117-.05462646c-1.77105713-.49182129-3.58129883-4.02044678-3.58129883-8.93536377 0-4.92095947 1.81463623-8.45281982 3.58782959-8.93768311l.44641113-.05822754c1.88323975.04400635 3.96575928 3.72399902 3.96575928 8.99591064 0 3.41210938-.87390137 6.1517334-2 7.67700195Z" fill="#ffffff" class="svgShape color000000-0 selectable"></path><path d="M44,74c3.30859375,0,6-2.69140625,6-6s-2.69140625-6-6-6-6,2.69140625-6,6,2.69140625,6,6,6ZM44,64c2.20556641,0,4,1.79443359,4,4s-1.79443359,4-4,4-4-1.79443359-4-4,1.79443359-4,4-4Z" fill="#ffffff" class="svgShape color000000-1 selectable"></path></svg></g></svg>